<?xml version="1.0" encoding="UTF-8"?><svg id="Layer_2" xmlns="http://www.w3.org/2000/svg" viewBox="0 0 603.96 727.67"><defs><style>.cls-1{fill:none;stroke:#ffa8ba;stroke-width:3.96px;}</style></defs><g id="Layer_1-2"><g><path class="cls-1" d="M309.56,638.79c44.32-5.77,113.33,15.98,136.41-22.4,28.21-46.92,7.96-74.74,38.6-120.3,30.64-45.56,48.03-47.43,83.12-75.39,37.27-29.7,2.93-76.55,19.31-130.94,23.6-78.38,2.1-109.16-43.88-159.85-45.98-50.69-66.28-39.04-113.58-49.43-47.31-10.4-67.95-96.74-121.05-74.99-49.16,20.14-48.98,76.31-113.87,110.39-72.1,37.87-106.76,18.82-139.36,54.45C.7,229.97,43.13,239.07,24.78,323.23c-17.89,82.05-42.69,117.88,4.05,170.45,46.74,52.57,85.65,149.75,143.25,175.68,57.61,25.93,89.48-24.32,137.48-30.58Z"/><path class="cls-1" d="M314.87,687.74c44.32-5.77,113.33,15.98,136.41-22.4,28.21-46.92,7.96-74.74,38.6-120.3,30.64-45.56,48.03-47.43,83.12-75.39,37.27-29.7,2.93-76.55,19.31-130.94,23.6-78.38,2.1-109.16-43.88-159.85-45.98-50.69-66.28-39.04-113.58-49.43-47.31-10.4-67.95-96.74-121.05-74.99-49.16,20.14-48.98,76.31-113.87,110.39-72.1,37.87-106.76,18.82-139.36,54.45-54.56,59.65-12.14,68.75-30.49,152.91-17.89,82.05-42.69,117.88,4.05,170.45,46.74,52.57,85.65,149.75,143.25,175.68,57.61,25.93,89.48-24.32,137.48-30.58Z"/></g></g></svg>