<?xml version="1.0" encoding="UTF-8"?><svg id="Layer_2" xmlns="http://www.w3.org/2000/svg" viewBox="0 0 703.55 532.61"><defs><style>.cls-1{fill:none;stroke:#ffa8ba;stroke-width:3.55px;}</style></defs><g id="Layer_1-2"><g><path class="cls-1" d="M167.9,433.65c38.06,21.25,75.91,73.32,120.37,62.55,54.35-13.16,58.18-41.68,113.45-52.65,55.27-10.97,69.92-2.39,116.36,0,49.31,2.53,55.57-45.61,106.04-70.02,72.72-35.17,77.65-66.2,77.65-123.24,0-57.04-23.71-61.21-52.8-94.11-29.09-32.91,15.21-97.77-40.73-114.07-51.78-15.09-90.78,19.68-164.35,4.39C362.15,29.51,348.8-1.66,298.94,2.08c-83.46,6.27-57.21,35.64-129.94,77.32-70.89,40.63-114.9,48.87-115.63,107.49-.73,58.62-38.54,140.4-12.36,188.66,26.18,48.26,85.66,35.09,126.89,58.1Z"/><path class="cls-1" d="M137.88,466.84c38.06,21.25,75.91,73.32,120.37,62.55,54.35-13.16,58.18-41.68,113.45-52.65,55.27-10.97,69.92-2.39,116.36,0,49.31,2.53,55.57-45.61,106.04-70.02,72.72-35.17,77.65-66.2,77.65-123.24,0-57.04-23.71-61.21-52.8-94.11-29.09-32.91,15.21-97.77-40.73-114.07-51.78-15.09-90.78,19.68-164.35,4.39-81.75-16.99-95.1-48.16-144.96-44.42-83.46,6.27-57.21,35.64-129.94,77.32-70.89,40.63-114.9,48.87-115.63,107.49-.73,58.62-38.54,140.4-12.36,188.66,26.18,48.26,85.66,35.08,126.89,58.1Z"/></g></g></svg>