<?xml version="1.0" encoding="UTF-8"?><svg id="Layer_2" xmlns="http://www.w3.org/2000/svg" viewBox="0 0 145.27 109.86"><defs><style>.cls-1{fill:#ffa8ba;}.cls-2{fill:none;stroke:#f2f7f5;stroke-width:2.08px;}</style></defs><g id="Layer_1-2"><g id="logo-pink-white"><path class="cls-1" d="M127.19,38.27v40.45c0,1.3-1.16,19.2,7.09,26.82,1.12,1.03,.53,2.89-.98,3.05-4.91,.52-12.72,.53-17.98-3.45-8.17-6.19-9.96-19.49-9.96-26.41V41.63c0-12.17-5.46-17.77-14.27-17.77-9.8,0-16.65,6.3-16.65,19.73v34.53c0,5.06-4.14,9.19-9.19,9.19h-3.44c-5.08,0-9.19-4.12-9.19-9.19V41.63c0-12.17-5.18-17.77-14.27-17.77-9.66,0-16.51,6.3-16.51,19.73v36.84c-.04,3.76-3.1,6.79-6.86,6.79H6.82c-3.74,0-6.77-3.01-6.8-6.75v-1.75C3.89,54.77,3.81,31.23,.31,8.05c-.16-1.03,.63-1.96,1.68-1.96H14.48c3.51,0,6.36,2.85,6.36,6.36h0c0,.81,.97,1.24,1.56,.67,5.54-5.37,13.29-8.15,22.09-8.15,10.06,0,18.7,3.72,24.08,11.3,.36,.5,1.06,.54,1.46,.07,6.06-7.13,15.51-11.37,26.37-11.37,17.91,0,30.78,10.35,30.78,33.3Z"/><path class="cls-2" d="M136.26,35.6v41.98c0,1.35-1.21,19.93,7.36,27.83,1.16,1.07,.55,3-1.02,3.16-5.09,.54-13.21,.55-18.66-3.58-8.48-6.42-10.34-20.23-10.33-27.41V39.08c0-12.63-5.66-18.44-14.81-18.44-10.17,0-17.28,6.53-17.28,20.47v35.84c0,5.25-4.29,9.54-9.54,9.54h-3.57c-5.27,0-9.54-4.27-9.54-9.54V39.08c0-12.63-5.37-18.44-14.81-18.44-10.02,0-17.14,6.53-17.14,20.47v38.23c-.05,3.9-3.22,7.05-7.12,7.05H11.34c-3.88,0-7.03-3.13-7.06-7v-1.82c4.02-24.85,3.94-49.27,.3-73.34-.16-1.07,.66-2.04,1.74-2.04h12.97c3.65,0,6.61,2.96,6.6,6.61h0c0,.84,1.01,1.28,1.61,.7C33.26,3.93,41.31,1.04,50.44,1.04c10.44,0,19.41,3.87,24.99,11.73,.37,.52,1.1,.56,1.51,.07,6.29-7.4,16.1-11.8,27.37-11.8,18.59,0,31.95,10.75,31.95,34.56Z"/></g></g></svg>