<?xml version="1.0" encoding="UTF-8"?><svg id="Layer_2" xmlns="http://www.w3.org/2000/svg" viewBox="0 0 191.05 305.36"><defs><style>.cls-1{fill:#ffa8ba;}.cls-2{fill:#004643;}</style></defs><g id="banner_image"><g><g><path class="cls-1" d="m166.42,6.86c-8.5-2.3-19.2.1-24.1,10.9l-.1.3c-3.4,10.9-8.7,37.4-13.4,60.9-2.7,13.4-5.2,26.1-7.1,34.5-2.6,11.5-5.7,13.9-6.4,13.9h0c-.6,0-3.3-1.9-6-11.4-1.7-5.8-5.3-23.8-9.2-42.9-4-19.6-8.4-41.9-11.8-55.7-2-8.1-8-14.5-15.7-16.6-6.1-1.7-12.4-.5-17.4,3.3-5.4,4.1-8.6,10.8-8.6,18,0,15.5,10.7,66.2,15.8,90.5-7.3-2-14.5-1.6-20.7,1-1.2.5-2.3,1.1-3.4,1.7-2.8,1.7-5,3.9-6.8,6.5-1.5,2.1-2.6,4.4-3.3,6.8h-.4c-4.2,0-8.1.5-11.5,1.5-4.6,1.1-8.1,3-10.7,5.6-1.1,1.1-2,2.4-2.8,3.8-1,1.8-1.7,3.7-2.1,5.8-.5,2.6-.8,5.5-.7,8.8.1,2,.2,4.1.4,6.4.6,7.6,2,16.5,3.8,27.6.1,1.6.1,3.3.1,5,.1,11.6.2,27.4,13,62.8,15.2,41.8,65,45,67.1,45.1h.2c15.3,0,47.7-3.6,60.4-17.4,11.8-12.8,24.5-35.1,26.3-56.3h0c.1-1.7.2-3.5.1-5.3-.3-12.6-4.4-28.3-7.6-40.1-1-3.7-1.9-7.1-2.6-10l-.2-.8c-2.5-13,1.5-40.3,1.6-40.7,1.1-8.9,5.2-31.8,9.1-54,4-22.5,7.8-43.8,8.7-51.3,1.2-8.1-4.7-15.7-14-18.2h0Z"/><path class="cls-1" d="m54.42,208.06c-7.5,8.6-15.8,9.2-26,2.2-12.3-8.4-20-32.6-21.8-50.2-.4-5-.4-9.3.1-13.2.4-2,1-3.6,1.9-5,2.1-3,5.6-4.9,9.7-6,2.7-.6,5.9-1,9.7-1.1,1.8,12,3.9,22.3,6.5,31.6,4.5,16.6,10.9,29.7,19.9,41.7h0Z"/><path class="cls-1" d="m60.32,205.86c-9.2-12.2-15.5-25-20.2-41.3-2.6-9.3-4.6-19.8-6.2-31.9.5-3.1,1.5-5.8,3.2-8,.2-.3.5-.6.7-.9l.1-.1c1.3-1.4,2.8-2.6,4.6-3.6.6-.3,1.3-.7,2-.9,5.5-2.1,12.5-2,19.5.4l5.6,23.6c-2.1,3.3-3.6,6.8-4.4,10.3-1.2,4.9-1.1,9.9.2,15,2.7,10.4,10.8,20.4,20.8,25.9-1.1,5.2-4.6,9.8-9.4,12.2-5.2,2.6-11,2.3-16.5-.7h0Z"/><path class="cls-1" d="m140.72,279.66c-10.5,11.3-39.2,15.5-55.9,15.5-2.1-.1-48.2-3.8-61.7-41.1-11.3-31.2-12.4-46.6-12.6-57.6,3.8,7.9,8.6,14.8,14.5,18.8,5.7,3.9,11.1,5.8,16.2,5.8,6.5,0,12.5-3.1,17.8-9.1,3.4,1.6,6.9,2.4,10.3,2.4s6.9-.8,10.1-2.4c6.2-3.1,10.7-8.9,12.4-15.5,2.9,1,7.1,2.4,11.2,3.6-5.1,4.4-11.8,12.6-14.2,17-6.9,12.3-7.3,30.1-5,41.5.1.5.9.5,1,0,1.3-6.6,2.9-26.3,12-38.4,6.8-9,13.1-16.2,15.2-18.1-2.3,7.3,7,31.6,10.4,29.7-.3.7-2.7-21.1-2.7-21.1l-.5-10.4c.1-1.7-1.2-3.1-2.9-3.2h0c-1.2-.1-2.4-.3-3.5-.6-4.3-1.2-15.7-4.3-22.1-6.7-9.4-4.6-17-13.6-19.4-23-1-3.8-1.1-7.5-.4-11.1.7-3.4,2.2-6.7,4.4-9.9l.6-.8c.7-.6,1.7-1,3.1-1.2,16.7-2.5,65.4,22.8,76.8,30.9.7,2.7,1.5,5.9,2.4,9.2,3,11.4,7.1,26.5,7.4,38.3,0,1.7,0,3.3-.1,4.8h0v.1c-1.7,19.6-13.7,40.5-24.8,52.6h0Z"/><path class="cls-1" d="m174.62,24.46c-.9,7.4-4.8,29.6-8.6,51-3.9,22.3-8,45.3-9.2,54.2-.2,1-3.3,22.2-2.2,36.9-16.3-9.9-58.4-31.6-76.5-28.9-1.3.2-2.4.5-3.5.9l-5.2-22-.5-2.5c-4.9-22.9-16.3-76.5-16.3-92,0-5.3,2.3-10.2,6.2-13.2,3.5-2.7,7.9-3.5,12.3-2.3,5.6,1.5,10,6.2,11.5,12.2,3.3,13.7,7.8,35.9,11.7,55.5,4,20,7.5,37.3,9.3,43.3,3.1,10.7,7,15.9,12,15.7,5.2-.1,9.3-6.4,12.1-18.6,1.9-8.4,4.5-21.2,7.1-34.6,4.6-23.2,9.8-49.4,13.2-60.1,3.7-7.9,11.4-9,16.9-7.5,5.1,1.6,10.4,5.9,9.7,12h0Z"/></g><path class="cls-2" d="m176.84,11.06c-8.5-2.3-19.2.1-24.1,10.9l-.1.3c-3.4,10.9-8.7,37.4-13.4,60.9-2.7,13.4-5.2,26.1-7.1,34.5-2.6,11.5-5.7,13.9-6.4,13.9h0c-.6,0-3.3-1.9-6-11.4-1.7-5.8-5.3-23.8-9.2-42.9-4-19.6-8.4-41.9-11.8-55.7-2-8.1-8-14.5-15.7-16.6-6.1-1.6-12.5-.4-17.5,3.4-5.4,4.1-8.6,10.8-8.6,18,0,15.5,10.7,66.2,15.8,90.5-7.3-2-14.5-1.6-20.7,1-1.2.5-2.3,1.1-3.4,1.7-2.8,1.7-5,3.9-6.8,6.5-1.5,2.1-2.6,4.4-3.3,6.8h-.4c-4.2,0-8.1.5-11.5,1.5-4.6,1.1-8.1,3-10.7,5.6-1.1,1.1-2,2.4-2.8,3.8-.9,1.8-1.6,3.8-1.9,5.9-.5,2.6-.8,5.5-.7,8.8,0,2,.2,4.1.4,6.4.6,7.6,2,16.5,3.8,27.6.1,1.6.1,3.3.1,5,.1,11.6.2,27.4,13,62.8,15.2,41.8,65,45,67.1,45.1h.2c15.3,0,47.7-3.6,60.4-17.4,11.8-12.8,24.5-35.1,26.3-56.3h0c.1-1.7.2-3.5.1-5.3-.3-12.6-4.4-28.3-7.6-40.1-1-3.7-1.9-7.1-2.6-10l-.2-.8c-2.5-13,1.5-40.3,1.6-40.7,1.1-8.9,5.2-31.8,9.1-54,4-22.5,7.8-43.8,8.7-51.3,1-8.3-4.8-15.8-14.1-18.4h0Zm-112,201.2c-7.5,8.6-15.8,9.2-26,2.2-12.3-8.4-20-32.6-21.8-50.2-.4-5-.4-9.3.1-13.2.4-2,1-3.6,1.9-5,2.1-3,5.6-4.9,9.7-6,2.7-.6,5.9-1,9.7-1.1,1.8,12,3.9,22.3,6.5,31.6,4.4,16.6,10.9,29.7,19.9,41.7h0Zm5.8-2.2c-9.2-12.2-15.5-25-20.2-41.4-2.6-9.3-4.6-19.8-6.2-31.9.5-3.1,1.5-5.8,3.2-8,.2-.3.5-.6.7-.9l.1-.1c1.3-1.4,2.8-2.6,4.6-3.6.6-.3,1.3-.7,2-.9,5.5-2.1,12.5-2,19.5.4l5.6,23.6c-2.1,3.3-3.6,6.8-4.4,10.3-1.2,4.9-1.1,9.9.2,15,2.7,10.4,10.8,20.4,20.8,25.9-1.1,5.2-4.6,9.8-9.4,12.2-5.2,2.8-11,2.5-16.5-.6h0Zm80.4,73.8c-10.5,11.3-39.2,15.5-55.9,15.5-2.1-.1-48.2-3.8-61.7-41.1-11.3-31.2-12.4-46.7-12.6-57.6,3.8,7.9,8.6,14.8,14.5,18.8,5.7,3.9,11.1,5.8,16.3,5.8,6.5,0,12.5-3.1,17.8-9.1,3.4,1.6,6.9,2.4,10.3,2.4s6.9-.8,10.1-2.4c6.2-3.1,10.7-8.9,12.4-15.5,2.9,1,7.1,2.4,11.2,3.6-5.1,4.4-11.8,12.6-14.2,17-6.9,12.3-7.3,30.1-5,41.5.1.5.9.5,1,0,1.3-6.6,2.9-26.3,12-38.4,6.8-9,13.1-16.2,15.2-18.1-2.3,7.3,7,31.6,10.4,29.7-.3.7-2.7-21.1-2.7-21.1l-.5-10.4c.1-1.7-1.2-3.1-2.9-3.2h0c-1.2-.1-2.4-.3-3.5-.6-4.3-1.2-15.7-4.3-22.1-6.7-9.4-4.6-17-13.6-19.4-23-1-3.8-1.1-7.5-.4-11.1.7-3.4,2.2-6.7,4.4-9.9l.6-.8c.7-.6,1.7-1,3.1-1.2,16.7-2.5,65.4,22.8,76.8,30.9.7,2.7,1.5,5.9,2.4,9.2,3,11.4,7.1,26.5,7.4,38.3,0,1.7,0,3.3-.1,4.8h0v.1c-1.8,19.6-13.7,40.6-24.9,52.6h0ZM184.94,28.66c-.9,7.4-4.8,29.6-8.6,51-3.9,22.3-8,45.3-9.2,54.2-.2,1-3.3,22.2-2.2,36.9-16.3-9.9-58.4-31.6-76.5-28.9-1.3.2-2.4.5-3.5.9l-5.2-22-.5-2.5c-4.9-22.9-16.3-76.5-16.3-92,0-5.3,2.3-10.2,6.2-13.2,3.5-2.7,7.9-3.5,12.3-2.3,5.6,1.5,10,6.2,11.5,12.2,3.3,13.8,7.8,36,11.7,55.6,4,20,7.5,37.3,9.3,43.3,3.1,10.7,7,15.9,12,15.7,5.2-.1,9.3-6.4,12.1-18.6,1.9-8.4,4.5-21.2,7.1-34.6,4.6-23.2,9.8-49.4,13.2-60.1,3.7-7.9,11.4-9,16.9-7.5,5.1,1.5,10.4,5.8,9.7,11.9h0Z"/></g></g></svg>