<?xml version="1.0" encoding="UTF-8"?><svg id="Layer_2" xmlns="http://www.w3.org/2000/svg" viewBox="0 0 189.66 306.07"><defs><style>.cls-1{fill:#ffa8ba;}.cls-2{fill:#f2f7f5;}</style></defs><g id="banner_image"><g><path class="cls-1" d="M175.44,11.79c-8.46-2.34-19.18,.13-24.05,10.94l-.12,.33c-3.44,10.9-8.73,37.44-13.4,60.86-2.68,13.44-5.21,26.13-7.11,34.49-2.61,11.47-5.71,13.89-6.39,13.91h0c-.59,0-3.27-1.91-6.01-11.41-1.68-5.83-5.31-23.82-9.15-42.86-3.96-19.64-8.45-41.89-11.79-55.72-1.96-8.11-7.98-14.47-15.73-16.58-6.15-1.68-12.53-.47-17.5,3.33-5.38,4.11-8.6,10.84-8.6,18,0,15.54,10.67,66.21,15.85,90.54-7.29-1.98-14.52-1.64-20.65,1.01-1.18,.49-2.32,1.05-3.39,1.7-2.76,1.69-5.04,3.9-6.79,6.51-1.46,2.08-2.58,4.37-3.28,6.83-.14,0-.28,0-.43,0-4.25,0-8.11,.53-11.53,1.49-4.64,1.14-8.11,2.99-10.7,5.65-1.09,1.12-2,2.37-2.76,3.76-1.03,1.75-1.73,3.69-2.07,5.79-.54,2.56-.76,5.47-.67,8.79,.05,1.96,.2,4.1,.44,6.35,.59,7.63,2,16.53,3.77,27.65,.05,1.62,.06,3.28,.08,5.04,.07,11.58,.17,27.45,12.99,62.8,15.17,41.83,64.99,44.97,67.1,45.08h.16c15.32,0,47.67-3.63,60.42-17.4,11.83-12.77,24.54-35.14,26.27-56.31h0c.14-1.7,.18-3.48,.14-5.32-.26-12.62-4.43-28.28-7.57-40.11-.98-3.67-1.9-7.14-2.56-9.99l-.19-.81c-2.54-13.04,1.53-40.32,1.58-40.68,1.11-8.88,5.18-31.83,9.12-54.02,3.99-22.5,7.76-43.75,8.66-51.33,.97-8.21-4.84-15.74-14.11-18.3ZM63.43,213.01c-7.49,8.55-15.81,9.25-26.03,2.24-12.28-8.42-19.96-32.6-21.83-50.17-.4-5.04-.41-9.26,.07-13.2,.39-1.97,1.01-3.62,1.87-5.01,2.07-2.97,5.6-4.89,9.68-5.99,2.68-.62,5.89-.99,9.68-1.11,1.76,11.96,3.87,22.32,6.51,31.59,4.64,16.52,11.05,29.66,20.04,41.64Zm5.86-2.23c-9.18-12.18-15.55-24.98-20.2-41.35-2.61-9.34-4.64-19.82-6.25-31.88,.46-3.07,1.53-5.77,3.18-7.99,.23-.3,.46-.6,.71-.88,.03-.03,.06-.07,.09-.1,1.29-1.42,2.85-2.64,4.64-3.63,.64-.35,1.3-.66,1.98-.94,5.49-2.14,12.47-2.02,19.49,.42l5.62,23.63c-2.1,3.31-3.56,6.77-4.36,10.34-1.16,4.88-1.1,9.94,.22,15.02,2.71,10.39,10.75,20.35,20.77,25.93-1.13,5.19-4.61,9.75-9.44,12.18-5.17,2.61-10.99,2.34-16.44-.74Zm80.42,73.8c-10.5,11.34-39.16,15.47-55.93,15.48-2.08-.14-48.16-3.75-61.72-41.13-11.31-31.19-12.43-46.65-12.6-57.57,3.8,7.94,8.64,14.79,14.54,18.83,5.66,3.88,11.1,5.81,16.25,5.81,6.47,0,12.45-3.06,17.76-9.14,3.37,1.6,6.88,2.42,10.35,2.42s6.87-.8,10.06-2.4c6.19-3.12,10.73-8.88,12.41-15.5,2.92,1.04,7.09,2.45,11.25,3.61-5.09,4.4-11.76,12.62-14.21,17.02-6.87,12.33-7.29,30.13-4.99,41.46,.11,.54,.89,.53,.99-.02,1.26-6.62,2.86-26.28,12-38.41,6.77-8.98,13.09-16.18,15.16-18.13-2.32,7.3,6.99,31.61,10.39,29.68-.34,.69-2.74-21.11-2.74-21.11l-.46-10.35c.09-1.69-1.2-3.14-2.89-3.24h0c-1.19-.07-2.36-.27-3.51-.58-4.34-1.18-15.71-4.33-22.1-6.73-9.37-4.59-16.99-13.62-19.44-23.02-.99-3.8-1.13-7.52-.43-11.13,.71-3.42,2.18-6.74,4.41-9.94l.58-.83c.7-.57,1.74-.96,3.13-1.17,16.65-2.47,65.36,22.77,76.8,30.85,.66,2.74,1.49,5.89,2.38,9.24,3.04,11.42,7.05,26.52,7.36,38.32,.04,1.68,0,3.29-.12,4.82h.01s0,.09,0,.13c-1.62,19.74-13.57,40.71-24.69,52.72ZM183.59,29.39c-.87,7.41-4.8,29.56-8.61,50.98-3.95,22.27-8.04,45.29-9.16,54.25-.16,1.04-3.31,22.17-2.25,36.89-16.31-9.87-58.39-31.61-76.5-28.94-1.28,.19-2.43,.5-3.47,.93l-5.23-22-.53-2.47c-4.87-22.88-16.29-76.46-16.29-91.96,0-5.3,2.33-10.25,6.24-13.23,3.53-2.69,7.89-3.52,12.28-2.32,5.63,1.54,10.03,6.22,11.48,12.21,3.31,13.71,7.79,35.91,11.74,55.5,4.04,20,7.52,37.27,9.27,43.34,3.1,10.74,7.01,15.88,11.96,15.74,5.24-.15,9.3-6.4,12.07-18.58,1.92-8.44,4.46-21.17,7.14-34.64,4.61-23.15,9.84-49.36,13.18-60.06,3.67-7.94,11.38-8.99,16.9-7.47,5.2,1.44,10.47,5.75,9.75,11.82Z"/><path class="cls-2" d="M166.31,6.79c-8.46-2.34-19.18,.13-24.05,10.94l-.12,.33c-3.44,10.9-8.73,37.44-13.4,60.86-2.68,13.44-5.21,26.13-7.11,34.49-2.61,11.47-5.71,13.89-6.39,13.91h0c-.59,0-3.27-1.91-6.01-11.41-1.68-5.83-5.31-23.82-9.15-42.86-3.96-19.64-8.45-41.89-11.79-55.72-1.96-8.11-7.98-14.47-15.73-16.58-6.15-1.68-12.53-.47-17.5,3.33-5.38,4.11-8.6,10.84-8.6,18,0,15.54,10.67,66.21,15.85,90.54-7.29-1.98-14.52-1.64-20.65,1.01-1.18,.49-2.32,1.05-3.39,1.7-2.76,1.69-5.04,3.9-6.79,6.51-1.46,2.08-2.58,4.37-3.28,6.83-.14,0-.28,0-.43,0-4.25,0-8.11,.53-11.53,1.49-4.64,1.14-8.11,2.99-10.7,5.65-1.09,1.12-2,2.37-2.76,3.76-1.03,1.75-1.73,3.69-2.07,5.79-.54,2.56-.76,5.47-.67,8.79,.05,1.96,.2,4.1,.44,6.35,.59,7.63,2,16.53,3.77,27.65,.05,1.62,.06,3.28,.08,5.04,.07,11.58,.17,27.45,12.99,62.8,15.17,41.83,64.99,44.97,67.1,45.08h.16c15.32,0,47.67-3.63,60.42-17.4,11.83-12.77,24.54-35.14,26.27-56.31h0c.14-1.7,.18-3.48,.14-5.32-.26-12.62-4.43-28.28-7.57-40.11-.98-3.67-1.9-7.14-2.56-9.99l-.19-.81c-2.54-13.04,1.53-40.32,1.58-40.68,1.11-8.88,5.18-31.83,9.12-54.02,3.99-22.5,7.76-43.75,8.66-51.33,.97-8.21-4.84-15.74-14.11-18.3ZM54.3,208.01c-7.49,8.55-15.81,9.25-26.03,2.24-12.28-8.42-19.96-32.6-21.83-50.17-.4-5.04-.41-9.26,.07-13.2,.39-1.97,1.01-3.62,1.87-5.01,2.07-2.97,5.6-4.89,9.68-5.99,2.68-.62,5.89-.99,9.68-1.11,1.76,11.96,3.87,22.32,6.51,31.59,4.64,16.52,11.05,29.66,20.04,41.64Zm5.86-2.23c-9.18-12.18-15.55-24.98-20.2-41.35-2.61-9.34-4.64-19.82-6.25-31.88,.46-3.07,1.53-5.77,3.18-7.99,.23-.3,.46-.6,.71-.88,.03-.03,.06-.07,.09-.1,1.29-1.42,2.85-2.64,4.64-3.63,.64-.35,1.3-.66,1.98-.94,5.49-2.14,12.47-2.02,19.49,.42l5.62,23.63c-2.1,3.31-3.56,6.77-4.36,10.34-1.16,4.88-1.1,9.94,.22,15.02,2.71,10.39,10.75,20.35,20.77,25.93-1.13,5.19-4.61,9.75-9.44,12.18-5.17,2.61-10.99,2.34-16.44-.74Zm80.42,73.8c-10.5,11.34-39.16,15.47-55.93,15.48-2.08-.14-48.16-3.75-61.72-41.13-11.31-31.19-12.43-46.65-12.6-57.57,3.8,7.94,8.64,14.79,14.54,18.83,5.66,3.88,11.1,5.81,16.25,5.81,6.47,0,12.45-3.06,17.76-9.14,3.37,1.6,6.88,2.42,10.35,2.42s6.87-.8,10.06-2.4c6.19-3.12,10.73-8.88,12.41-15.5,2.92,1.04,7.09,2.45,11.25,3.61-5.09,4.4-11.76,12.62-14.21,17.02-6.87,12.33-7.29,30.13-4.99,41.46,.11,.54,.89,.53,.99-.02,1.26-6.62,2.86-26.28,12-38.41,6.77-8.98,13.09-16.18,15.16-18.13-2.32,7.3,6.99,31.61,10.39,29.68-.34,.69-2.74-21.11-2.74-21.11l-.46-10.35c.09-1.69-1.2-3.14-2.89-3.24h0c-1.19-.07-2.36-.27-3.51-.58-4.34-1.18-15.71-4.33-22.1-6.73-9.37-4.59-16.99-13.62-19.44-23.02-.99-3.8-1.13-7.52-.43-11.13,.71-3.42,2.18-6.74,4.41-9.94l.58-.83c.7-.57,1.74-.96,3.13-1.17,16.65-2.47,65.36,22.77,76.8,30.85,.66,2.74,1.49,5.89,2.38,9.24,3.04,11.42,7.05,26.52,7.36,38.32,.04,1.68,0,3.29-.12,4.82h.01s0,.09,0,.13c-1.62,19.74-13.57,40.71-24.69,52.72ZM174.46,24.39c-.87,7.41-4.8,29.56-8.61,50.98-3.95,22.27-8.04,45.29-9.16,54.25-.16,1.04-3.31,22.17-2.25,36.89-16.31-9.87-58.39-31.61-76.5-28.94-1.28,.19-2.43,.5-3.47,.93l-5.23-22-.53-2.47c-4.87-22.88-16.29-76.46-16.29-91.96,0-5.3,2.33-10.25,6.24-13.23,3.53-2.69,7.89-3.52,12.28-2.32,5.63,1.54,10.03,6.22,11.48,12.21,3.31,13.71,7.79,35.91,11.74,55.5,4.04,20,7.52,37.27,9.27,43.34,3.1,10.74,7.01,15.88,11.96,15.74,5.24-.15,9.3-6.4,12.07-18.58,1.92-8.44,4.46-21.17,7.14-34.64,4.61-23.15,9.84-49.36,13.18-60.06,3.67-7.94,11.38-8.99,16.9-7.47,5.2,1.44,10.47,5.75,9.75,11.82Z"/></g></g></svg>