<?xml version="1.0" encoding="UTF-8"?><svg xmlns="http://www.w3.org/2000/svg" viewBox="0 0 98.16 61.61"><defs><style>.d{fill:#e8e7e2;}</style></defs><g id="a"/><g id="b"><g id="c"><g><path class="d" d="M10.88,.44C5.04,.02,0,1.73,0,1.73c0,0,7.53,10.58,6.33,32.07C5.38,50.96,0,60.8,0,60.8c0,0,5.23,.97,11.7,0,4.16-.47,7.35-2.71,9.16-4.96,6.36-7.92,5.02-43.06,2.02-48.45C20.23,2.61,15.8,.8,10.88,.44Z"/><path class="d" d="M59.7,18.86c.34-3.76,.89-16.6-15.32-18.73-10.2-1.34-17.67,8.04-17.67,8.04,0,0,9.93-.08,11.68,9.05,2.11,11-7.31,25.15-1.37,34.83,2.77,4.51,8.11,8.5,14.83,9.12,6.48,.97,11.7,0,11.7,0,0,0-4.67-7.28-6.55-14.4-2.5-9.43,2.34-23.89,2.7-27.92Zm-19.87-10.74c-1.1,0-1.99-.89-1.99-1.99s.89-1.99,1.99-1.99,1.99,.89,1.99,1.99-.89,1.99-1.99,1.99Zm12.55,29.46s-4.6-2.37-7.38-6.71c-2.73-4.25-2.97-9.01-1.29-9.89,1.68-.88,5.2,1.25,7.38,6.71,1.91,4.78,1.29,9.89,1.29,9.89Z"/><path class="d" d="M94.31,18.86c.34-3.76,.89-16.6-15.32-18.73-10.2-1.34-17.67,8.04-17.67,8.04,0,0,9.93-.08,11.68,9.05,2.11,11-7.31,25.15-1.37,34.83,2.77,4.51,8.11,8.5,14.83,9.12,6.48,.97,11.7,0,11.7,0,0,0-4.67-7.28-6.55-14.4-2.5-9.43,2.34-23.89,2.7-27.92Z"/></g></g></g></svg>